# xmcd
#
# Track frame offsets:
#	150
#	13697
#	26380
#	38908
#	58310
#	69849
#	81938
#	106062
#	127252
#	139550
#	152878
#	163368
#
# Disc length: 2284 seconds
#
# Revision: 1
# Processed by: cddbd v1.5.2PL0 Copyright (c) Steve Scherf et al.
# Submitted via: audiograbber 1.83.01
#
DISCID=a008ea0c
DTITLE=Willie Nelson - The Last Letter [CD4/5)
DYEAR=2008
DGENRE=Country
TTITLE0=The Last Letter
TTITLE1=I Just Don't Understand
TTITLE2=Shelter On My Arms
TTITLE3=Ain't It Funny
TTITLE4=Life And Love
TTITLE5=Trouble In Mind
TTITLE6=It's Not Supposed To Be That Way
TTITLE7=South Of The Border
TTITLE8=He Tought Me How
TTITLE9=Train Train
TTITLE10=I Feel Sorry For Him
TTITLE11=You Wouldn't Cross The Street To Say Goodbye
EXTD=CD 4 of a set of five CDs with different album-titles:\nAlways On My Mind 
EXTD=(CD1/5]\nTo All The Girls I've Loved Before [CD2/5]\nFace Of A Fighter [CD
EXTD=3/5]\nThe Last Letter [CD4/5]\nCrazy [CD5/5)
EXTT0=
EXTT1=
EXTT2=
EXTT3=
EXTT4=
EXTT5=
EXTT6=
EXTT7=
EXTT8=
EXTT9=
EXTT10=
EXTT11=
PLAYORDER=
